<?xml version="1.0" encoding="utf-8"?>
<!-- Generator: Adobe Illustrator 21.0.0, SVG Export Plug-In . SVG Version: 6.00 Build 0)  -->
<svg version="1.1" id="Layer_2" opacity=".9" xmlns="http://www.w3.org/2000/svg" xmlns:xlink="http://www.w3.org/1999/xlink"
	 x="0" y="0" viewBox="0 0 100 100" style="enable-background:new 0 0 100 100;" xml:space="preserve">
<style type="text/css">
	.st0{fill:#FFFFFF;}
	.st1{fill:#207B50;}
</style>
<g>
	<path class="st0" d="M3,36.8h14.3c0,0,2.9-1.4,2.9,9.9s0,29.7,0,29.7s10,8.5,10-8.5s0-31.1,0-31.1s4.3-8.5,11.5-8.5s7.2,0,7.2,0
		S47.4,10,66.1,10s25.8,0,25.8,0s7.2,9.9-4.3,9.9s-22.9,0-22.9,0s-5.7,1.4-5.7,4.2s0,2.8,0,2.8h22.9c0,0,12.9,9.9-5.7,9.9v18.4
		c0,0,21.5,1.4,18.6,14.1S89,84.8,70.4,83.4H56v7.1c0,0-7.2,5.6-10,0V77.8c0,0-2.9-4.2,20.1-2.8H79c0,0,8.6-1.4,5.7-7.1
		c0,0-5.7-5.6-8.6,0c0,0-2.9,8.5-8.6,0V42.5c0,0-2.9-11.3-10,0v18.4c0,0-4.3,8.5-8.6,0V42.5c0,0-5.7-11.3-10,0v33.9
		c0,0-2.9,12.7-12.9,12.7c0,0-15.8,0-15.8-22.6s0-19.8,0-19.8S-1.3,46.7,3,36.8z"/>
	<g>
		<g>
			<g>
				<g>
					<path class="st1" d="M4.2,37.4c0-0.4-0.5-0.4-0.7,0.5c0.1,0.3,0.3,0.6,0.4,0.8L4.2,37.4z"/>
					<path class="st1" d="M2.7,43.2c0.2,0.2,0.5,0.4,0.7,0.5c0.1,0.1,0.2,0.1,0.3,0.2C3.9,44,4,44,4.1,44c0.4,0,0.7-0.1,0.7-0.6
						c-0.6,0-0.8-0.2-1-0.4c-0.2-0.1-0.2-0.2-0.4-0.3c-0.1-0.1-0.4-0.2-0.6-0.5c-0.1-0.4-0.2-0.8-0.1-1.1c0.1-0.3,0.2-0.4,0.4-0.3
						c-0.1-0.2-0.1-0.5,0-0.8c0.1-0.4,0.1-0.7,0-1c-0.2,0.3-0.3,0.6-0.5,0.9c-0.2,0.3-0.1,0.7-0.2,1.1c0,0.4,0.1,0.8,0.2,1.1
						c0.1,0.4,0.4,0.7,0.6,1C3.1,43.5,2.9,43.3,2.7,43.2z"/>
					<path class="st1" d="M39.7,57.8l-0.1,0.6C39.7,58.2,39.7,58,39.7,57.8z"/>
					<path class="st1" d="M58.6,61.5c-0.3,0.6-0.4,0.8-0.4,0.9C58.5,61.8,58.7,61.4,58.6,61.5z"/>
					<path class="st1" d="M59.5,50.8c0,0.2,0,0.4,0,0.6C59.5,51.2,59.5,50.9,59.5,50.8z"/>
					<path class="st1" d="M39.7,57.8l0.2-1.6C39.7,56.1,39.8,57,39.7,57.8z"/>
					<path class="st1" d="M11.8,51.3c0-0.3-0.1-0.6-0.2-0.9c0,0.3,0,0.5,0.1,0.8C11.8,51.2,11.8,51.3,11.8,51.3z"/>
					<path class="st1" d="M36.7,84.5c-0.1,0.1-0.2,0.3-0.3,0.4c0,0.2-0.1,0.3-0.1,0.5C36.5,85.1,36.6,84.8,36.7,84.5z"/>
					<path class="st1" d="M16.8,87.3c0.4,0.4,0.9,0,1.2-0.1c-0.4,0.1-0.7-0.1-1.1-0.3C16.8,86.9,16.7,87,16.8,87.3z"/>
					<path class="st1" d="M9.6,55.9l-0.1-0.6C9.5,55.4,9.5,55.7,9.6,55.9z"/>
					<path class="st1" d="M40.4,69.8c0.1,0,0.2-0.1,0.2-0.2C40.5,69.6,40.5,69.7,40.4,69.8z"/>
					<path class="st1" d="M17.5,45C17.5,45,17.6,45,17.5,45C17.5,44.9,17.5,44.8,17.5,45z"/>
					<path class="st1" d="M3,36.7l0.3,0c0-0.1,0.1-0.2,0.1-0.3L3,36.7z"/>
					<path class="st1" d="M63.5,40.5C63.5,40.4,63.5,40.4,63.5,40.5C63.4,40.4,63.4,40.4,63.5,40.5z"/>
					<path class="st1" d="M96.3,72.8c-0.5,0.9-0.4,0.1-0.4-0.6c0-0.7,0-1.3-0.7,0.1C95.5,72,95.3,75.1,96.3,72.8z"/>
					<path class="st1" d="M11.8,51.8c0,0.3,0,0.6,0,0.8C11.8,52.3,11.8,52,11.8,51.8z"/>
					<path class="st1" d="M95.2,72.2L95.2,72.2L95,72.5C95.1,72.4,95.1,72.3,95.2,72.2z"/>
					<path class="st1" d="M78.8,68.2c-0.1,0-0.2,0-0.3,0C78.5,68.3,78.6,68.3,78.8,68.2z"/>
					<path class="st1" d="M65.9,49.1l-0.1,0.8C65.9,49.6,65.9,49.3,65.9,49.1z"/>
					<path class="st1" d="M81.1,72.7c-0.4,0.1-0.5,0.1-1,0.3c0.1,0,0.1,0,0.2,0C80.4,72.8,80.7,72.7,81.1,72.7z"/>
					<path class="st1" d="M64.4,73.3c0.1,0,0.2,0.1,0.3,0.1c0.2,0,0.4,0,0.6,0L64.4,73.3z"/>
					<path class="st1" d="M32.6,64.7c-0.2,0.4-0.3,0.6-0.5,0.8C32.5,65.3,32.6,67.8,32.6,64.7z"/>
					<path class="st1" d="M11.5,51.3c0.1,0.1,0.2,0.3,0.2,0.5c0-0.2,0-0.4,0-0.6C11.6,51.2,11.6,51.2,11.5,51.3z"/>
					<path class="st1" d="M82,77.1c-0.5,0.2-1.1,0.3-1.6,0.4L80,77.6l-0.6,0.1c-0.2,0-0.4,0-0.6,0l-0.4,0c0.1,0,0.2,0,0.3,0
						c0.2,0,0.4,0,0.6,0c0.2,0,0.4-0.1,0.6-0.1c0.1,0,0.3-0.1,0.4-0.1C80.9,77.4,81.4,77.3,82,77.1z"/>
					<path class="st1" d="M81.7,17.6l0.6-0.1C82,17.5,81.8,17.5,81.7,17.6z"/>
					<path class="st1" d="M70,77.8c-0.5-0.2-1-0.3-1.6-0.4c-0.1,0-0.2,0.1-0.3,0.1L70,77.8z"/>
					<path class="st1" d="M32.1,65.6C32.1,65.5,32.1,65.5,32.1,65.6C32.1,65.5,32.1,65.5,32.1,65.6z"/>
					<path class="st1" d="M20.9,80.6c0.8,0.4,1.3,0.5,1.7,0.6c0.4,0,0.5,0,0.6-0.1c0.1-0.2-0.1-0.6,0.3-0.7c1,0.2,1.8,0.2,2.2,0.2
						c0.5,0,0.7,0,0.8,0.1c0.2,0.2,0,0.5,1,0.4c0.8-0.4,1.5-0.9,2-1.5c0.5-0.6,0.8-1.1,1-1.7c0.4-1.1,0.6-2,0.9-2.8
						c0.2-0.1,0.3-0.4,0.3,0c0.1-1.3,0.4-3,0.4-4.7c0.1-0.9,0-1.7,0-2.5c-0.1-0.8-0.2-1.5-0.3-2.1c0.1-0.2,0.1-0.3,0.2-0.3
						c-0.4,0.4-0.7,0.5-1,0.4c0-1.2-0.5-2.2,0-2.6c0,0.7,0.2,0.8,0.3,1.1l-0.2-1.2c0.7-1.1,0.2,1.7,0.8,1.7
						c-0.2-2.4-0.8-5.2-0.6-7.1c0.7-0.4,0.2,4.3,0.8,1.9l-0.3,2.9c1.1-2.2-0.1,1.7,1.1-0.3c0.2-3.8-0.3-4.2-0.1-8
						c-0.4-0.8-0.6,0.3-0.9-0.6c-0.7-5.4,1.7-4.2,0.8-8.2c-0.5-1-1.3-1.4-0.9-4.2l0.8,1c0-1.8-0.2-2.4-0.5-2.9
						c-0.1-0.3-0.2-0.5-0.2-1c0-0.1,0-0.2,0-0.4c0-0.1,0-0.3,0-0.4c0-0.2,0-0.3,0.2-0.5c0,0.1,0,0.2,0.1,0.3l0,0.2c0,0,0,0,0,0.1
						c0,0.1,0,0.1,0,0.2c0,0.6,0,1,0.1,0.7c0.1-0.3,0.1-0.6,0.2-0.8c0-0.1,0-0.1,0-0.2l0,0c0,0,0,0,0-0.1c0-0.1-0.1-0.2-0.1-0.2
						c-0.1-0.1-0.1-0.2-0.2-0.3c0-0.1,0.1-0.5,0.3-0.8l0.8,0.1c1-1.5,2.1-2.9,3.4-4.1c1.3-1.2,3-2,4.8-2.1c-0.2,0.2-0.7,0.5,0,0.6
						c0.9-0.1,1.8-0.1,2.8-0.1c0.5,0,1,0,1.5,0c0.8,0,1.6,0,2.5,0l0.8-0.6l0.4-0.3c0.1-0.1,0.3-0.2,0.4-0.3c0.3-0.4,0.6-1,1.2-1.7
						c0-0.6,0-1.2,0.1-1.7l0-0.2l0-0.1l0-0.2c0-0.1,0-0.3,0.1-0.4c0.1-0.6,0.3-1.2,0.4-1.7c0.3-1.1,0.8-2.1,1.3-3
						c0.1-0.6,0.1-1.2,0.3-1.8c0.2-0.3,0.6-0.5,0.5-0.1c1.1-1.3-0.3-0.3,0-1.1c0.6-0.8,1.1-0.8,0.8-0.2c0.7-1.3,2.3-3,4.4-3.9
						c2.1-1,4.6-1.3,6.3-1l-0.7,0.2c1.3,0.1,2.2-0.2,3-0.5c0.8-0.3,1.6-0.5,3-0.2l-0.5,0.1c6.4,0.3,13.5-0.3,18.4,0.6
						c0.2-0.2,0.7-0.3,1.4-0.3c0.2,0,0.3,0,0.5,0l0.2,0l0.1,0l0.1,0.1c0.1,0.1,0.1,0.3,0.2,0.4c0.1,0.2,0.2,0.3,0.3,0.4
						c0.3,0.4,0.5,0.7,0.8,0.7c0.3,1.6,0,2.1-0.2,2.5c-0.1,0.2-0.2,0.3-0.4,0.4c-0.2,0.1-0.3,0.2-1.1,0.4c-0.8,0.2-1.3,1.1-2.9,1.2
						l0-0.6l-2.3,0.6l-1.2-0.7l-1.6,0.2c0.6,0,1.4,0.3,1.3,0.5c-2.5,0.3-6.1-0.4-6.2-0.7l-5.9,0.5c0.1-0.2,1.1-0.3,1.9-0.5
						c-3.2,0.6-0.6-0.6-3.5-0.1c0.4,0.1-0.2,0.4-0.3,0.5c-0.7-0.2-1.9-0.3-3.2-0.3c-0.3,0-0.7,0-1,0l-0.6,0c-0.3,0-0.6,0-0.9,0.1
						c-0.6,0.2-0.9,0.3-1.3,0.4c-0.3,0.1-0.7,0.3-1,0.4l0.4-0.6c-0.8,0.3-1.5,0.6-2.3,1.1c-0.4,0.2-0.8,0.5-1.2,0.8
						c-0.2,0.2-0.4,0.4-0.7,0.6c-0.2,0.2-0.5,0.5-0.7,0.8c-0.2,0.3-0.4,0.6-0.5,0.9c-0.2,0.3-0.3,0.6-0.4,1c-0.1,0.3-0.1,0.7-0.2,1
						c0,0.3,0,0.8,0,0.9c0,0.7,0,1.5,0.1,2.3l0.1,2.8l2.7-0.1c1.8,0,3.6-0.1,5.5-0.1c-1.8-0.2-1.4-0.9,0.1-1l0.6,0.7
						c0.9-0.4-1.5-0.2,0.4-0.7c1.8,0.1,1.2,0.7,0.2,1l2.2-0.2c0.1,0.2-0.4,0.3-0.5,0.5c0.9-0.4,3.9,0.7,5.2,0l0.1,0.2
						c2.5,0,4.3-0.1,5.9-0.1c0.4,0,0.8,0,1.2,0c0.4,0,1,0,0.9,0c0.1,0,0.1,0,0.2,0l0.1,0.1c0.1,0.1,0.3,0.3,0.4,0.4
						c0.4-0.4,1.3,0.7,2.2,1.2c0.2,0.3,0.3,0.5,0.3,0.7c0.1,0.2,0.1,0.3,0.1,0.5c0,0.3-0.1,0.6-0.4,0.7c-0.3,0.2-0.4,0.2-1,0.4
						c-0.6,0.2-1.3,0.3-2.1,0.4c-1.1,0.3-1.3,0.4-1.3,0.5c0,0.1,0,0.1,0,0.2c0,0,0,0.1-0.1,0.1c0,0-0.1,0-0.1,0.1
						c-0.1,0-0.2,0-0.3,0.1c-0.2-0.3-1.6-0.3-2.8-0.4c-1.2-0.1-2-0.1-0.5-0.3c-0.5,0-0.9,0-1.3,0.1l-0.3,0c-0.1,0-0.2,0-0.2,0.1
						c0,0.2,0,0.4,0,0.6c0,0.8,0,1.5,0,2.2c0,0.7,0,1.3,0,2l0,0.8l0,0.6c0.1,1.5,0.2,3.1,0.4,5.8c0.2-0.6,0.3-1.2,0.5-0.9
						c0.1,1-0.2,2.2-0.5,2.1l-0.1-0.3c0.2,1.2,0.2,2.5,0.2,3.8c-0.1,1.9-0.2,3.9-0.2,5.8c0.8,0.1,1.7,0.2,2.5,0.4
						c0.4,0.1,0.8,0.1,1.3,0.2l0.6,0.1l0.4,0.1c0.9,0.2,1.8,0.5,2.7,0.8c1.7,0.5,3.2,1,4.6,1.2l-0.2,0c1.5,0.4,2.9,0.9,4.2,1.6
						c1.5,1.3-1.1-0.4-0.2,0.7c2,1,2.8,2.5,2.9,4c0.1,0.7,0,1.5-0.1,2.2c0,0.2,0,0.4-0.1,0.6c0,0.2-0.1,0.5-0.1,0.7
						c-0.1,0.5-0.2,1-0.2,1.6c-0.6,0.7-1,1.7-1.5,2.9c-0.2,0.6-0.5,1.1-0.7,1.8c-0.3,0.5-0.5,1.2-0.9,1.6c-0.7,1-1.4,1.8-2.5,2.3
						c-0.1,0.1-0.2,0.1-0.4,0.2c-0.1,0-0.3,0.1-0.4,0.1c-0.3,0.1-0.6,0.2-0.8,0.2c-0.6,0.1-1.1,0.1-1.6,0.1l0.3,0.3
						c-1,0.5-1.3,0-2.1,0c0.1,0.3,1.2,0.2,0.5,0.4c-1.9,0.3-4,0.4-6.1,0.3c-1.1,0-2.1-0.1-3.2-0.2L71,81.1l-0.4,0
						c-0.1,0-0.3,0-0.3,0L70,81l-0.8,0c-2.2-0.1-4.4-0.2-6.6-0.3l-3.3-0.2c-2.1-0.1-4.2-0.1-6.3-0.2c0,1.7-0.1,3.4-0.1,5.1l0,1.2
						l0,0.7l0,1.3l0,0.1l0,0l0,0l0,0c0,0,0,0,0,0c0,0,0.1,0.1,0.2,0.1c0.1,0.1,0.2,0.3,0.3,0.5c0,0.1,0,0.2,0,0.3
						c0,0.1-0.2,0.3-0.4,0.4c-0.4,0.3-1.1,0.6-2,0.6c0.3-0.3,0.5-0.6,0.7-0.9c-0.5,0.3-1.1,0.5-1.6,0.6c-0.5,0.1-0.8,0-1,0
						c-0.1-0.1-0.3-0.1-0.4-0.3c-0.1,0-0.1-0.1-0.2-0.2c-0.1-0.1,0-0.2,0-0.3l0-1.3c0-1.7,0-3.4,0-5.1c0-0.8,0-1.7,0-2.5l0-1.2
						c0-0.4,0-1,0-0.9c0-0.1,0-0.1-0.1-0.2c0-0.1,0-0.1,0-0.2c0.1-0.1,0.2-0.2,0.3-0.3c0,0.2,0.1,0.3,0,0.4c0.4,0,0.1,0.1,1.5-0.3
						c0.5-0.1,1.1-0.3,1.4-0.4c0.4-0.1,0.6-0.3,0.6-0.3c1.1-0.1,0.3,0.3,1,0.5c0.8,0.1,1.7-0.1,2.6-0.3c0.9-0.1,1.7-0.2,2.1,0
						c0.1,0.1-0.4,0.2-0.7,0.2c1-0.3,4.7,0.1,3.8-0.5c2.8,0.3,5.4,0.1,7.7,0.3c1.5-0.6,4.9,0.3,5.3-0.6c-0.1,0.5,1.1,0.6,2.6,0.7
						c0.4,0,0.8,0,1.2,0c0.4,0,0.8,0,1.2-0.1c0.3,0,0.6-0.1,0.9-0.2c0.3-0.1,0.4-0.1,0.6-0.2c0.3-0.1,0.6-0.3,0.9-0.4
						c-0.3,0.2,0.2,0.2,0.6,0.1c0.4-0.1,0.9-0.1,0.6,0.2c1.2-0.4,2.3-1.1,3-1.8c0.7-0.7,1-1.3,0.6-1.2c0.6-0.4,1.1-1,1.4-1.8
						c0.1-0.4,0.3-0.8,0.4-1.2c0-0.4,0.1-0.8,0.1-1.2c-0.1-0.7-0.2-1.4-0.6-2.1c-0.2-0.3-0.3-0.7-0.5-1c-0.2-0.3-0.6-0.5-0.8-0.7
						c-0.1-0.1-0.3-0.2-0.4-0.3l-0.3-0.2c-0.2-0.1-0.4-0.3-0.6-0.4c-0.4-0.2-0.8-0.5-1.2-0.7c-0.8-0.4-1.5-0.9-2.2-1.4
						c-0.7-0.1-1.5-0.2-2.3,0c-0.8,0.1-1.6,0.5-2.3,0.9c-0.3,0.2-0.6,0.5-0.9,0.7c-0.2,0.3-0.4,0.5-0.7,0.8c-0.4,0.5-0.6,1-0.9,1.6
						c0,0.1-0.1,0.1-0.1,0.2c0,0.1,0,0.1-0.1,0.2c-0.2,0.8-0.6,1.5-0.9,1.9c-0.2,0.3-0.5,0.5-0.9,0.5l-0.3,0l-0.3-0.1
						c-0.1,0-0.2-0.1-0.4-0.2L70.7,69l-0.8-0.8c-0.1-0.1-0.3-0.3-0.4-0.5l-0.2-0.2c0.1,0,0.2,0,0.3,0c0,0,0.1,0,0.1,0
						c0.1,0.1,0.2,0.1,0.3,0.2c0.2,0.2,0.4,0.4,0.6,0.6c0.2,0.2,0.4,0.4,0.6,0.6l0.3,0.2l0.1,0.1c0,0,0.1,0,0.1,0
						c0.1,0,0.2,0.1,0.3,0c0.2,0,0.2-0.2,0.2-0.4c-0.1,0-0.2,0.1-0.4,0c-0.2-0.1-0.3-0.2-0.4-0.3c-0.2-0.1-0.3-0.2-0.5-0.3
						c-0.3-0.3-0.7-0.5-1-0.9c-0.1-0.1-0.1-0.1-0.2-0.1c-0.1-0.1-0.1-0.1-0.2-0.2l0-0.1c0-0.1,0-0.1,0-0.2l-0.1-0.8
						c0-0.5-0.1-1-0.1-1.6c0-1.1-0.1-2.2,0-3.5c0.1-1.3,0.4,0.8,0.5,1.2c-0.4-5.2,0.1-10-0.4-14.6c0.1,0,0.2,0.5,0.2,1
						c0-0.9,0.1-2.1-0.3-2l0.1,0.9c-0.6,1.4-1.2-3.6-1.6-3.8c0.3,0.4,0.5,0.3,0.6,0c0.1-0.2,0.1-0.4,0.1-0.6c0-0.3,0.1-0.7,0-1
						c-0.1-0.4-0.1-0.6-0.2-0.9c0-0.2-0.1-0.4,0-0.6c0-0.3,0.3-0.3,0.9,0.3c-0.3-0.6-0.9-1.3-1-1.1c-0.4-0.9-0.5-1.3,0.4-0.5
						c-1-1.7-1.8-2.2-2.5-2.5c-0.3-0.2-0.7-0.3-1.2-0.5c-0.5-0.2-1.2-0.4-2.3-0.2c0-0.2,0.9-0.4,1.4-0.5c-1.2,0-2.4,0.5-3.4,1.2
						c-0.9,0.7-1.7,1.5-2.6,2.5c0-0.2-0.3-0.1,0.2-0.7c-0.4,0.5-0.7,0.9-1,1.4c-0.1,0.2-0.3,0.5-0.4,0.7c-0.2,0.3-0.3,0.6-0.5,0.9
						L56,41.8c0,0.1-0.1,0.1-0.1,0.2l0,0.3l0.1,1l0.2,1.4c0.2,1.9,0.4,3.8,0.2,6.1c-0.9-1.4-0.3,1.6-1,1.8l0.2,2.5l0.4-1
						c0,1.1,0.1,2.1,0.2,3.1c0.1,0.5,0.1,1,0.1,1.5c0,0.2,0,0.5,0,0.7l0,0.4c0,0.1,0,0.1,0,0.2c0-0.1-0.1-0.1-0.1-0.3l-0.1-0.4
						l-0.2-0.8l0,1l0,0.4l0,0.3c0,0.2-0.1,0.3-0.2,0.5c-0.1,0.2-0.3,0.5-0.5,0.7c0.1-0.1,0.2-0.2,0.4-0.4l0.2-0.2l0.1-0.1
						c0.2-0.2,0.4-0.4,0.4-0.6c0,0.1,0.1,0.2,0.1,0.3c0,0.1,0,0.1,0,0.2c0,0.1,0,0.2,0,0.3c0,0.1,0.1,0.2,0.2,0.2
						c0.1,0.1,0.2,0.2-0.8,1.3c0.1-0.3-0.2,0.2-0.7,0.6c-0.6,0.5-1.3,0.8-1.8,0.6l0,0c-0.8,0.4-1.9,0.2-2.7-1.1
						c-0.1-0.4,0.8-0.3,0.8-0.6c-0.3-0.1-0.6-0.3-0.9-0.7c-0.2-0.2-0.3-0.4-0.4-0.5C50,60.6,50,60.4,50,60.2c0-0.3,0-0.6,0-0.9
						c0-0.3,0-0.6-0.1-0.9c-0.1-0.6-0.2-1.1-0.3-1.4c0.2,0.5,0.5,0.5,0.6,0.3l-0.5-0.9c0.2-1,0.2-1.2,0.6-1c0.1-3.1-0.9,1-0.5-2.7
						c0,0.3,0.1,0.1,0.2,0.7c0.1-1.8,0-3.6,0-5.3c0-0.9-0.1-1.7-0.1-2.6c0-0.4,0-0.8,0-1.3l0.1-1.4c0.2-0.3,0.3-0.3,0.4,0
						c0,0.1,0.1,0.4,0.1,0.6c0,0.2,0,0.3,0,0.5c0,0.7,0,1.4,0.4,0.8c0-0.7-0.1-1.4-0.1-2.1c0-0.2,0-0.5-0.1-0.7l-0.4-0.6l-0.4-0.6
						l-0.3-0.4c-0.8-1.1-1.7-2.1-3-3c-0.6-0.4-1.4-0.8-2.2-1c-0.8-0.2-1.7-0.1-2.4,0.3c-0.7,0.3-1.4,0.9-1.8,1.4
						c-0.4,0.5-0.8,1.1-1.1,1.6c0.2-0.3,0.4-0.5,0.6-0.8c0.2,0.6-0.3,1.3-1,2.2c-0.1,0.1-0.2,0.2-0.2,0.4c-0.1,0.2-0.2,0.3-0.3,0.5
						c-0.1,0.2-0.1,0.4-0.2,0.5l-0.1,0.6c-0.1,0.6-0.1,1.2,0.1,1.8c-0.1-0.6-0.6-0.8-0.5-0.6c-0.2,3.2,0.3,6.6,0.6,11.4l-0.3-0.6
						c-0.2,1.9-0.1,5-0.3,7c0.3,0.6,0.2,1.8,0.6,1.1c-0.8,3.2-0.6,6.2-0.3,9.1c0.1,0.7,0.1,1.5,0.2,2.2l0.1,1.1l0,0.5
						c0,0.1,0,0.3-0.1,0.4c-0.3,1.3-0.9,2.6-1.8,3.6c0.3-0.6,0.4-1.5,0.2-1c-0.5,1.4-1.2,2.8-1.9,4c0.6,0,0.6-0.3,1.4-0.9
						c-0.1,0.6-0.6,1.9-1.4,2.8c1.1-1.9-0.6-0.4-1.4,0c0.2,0,0.1,0.3,0.3,0.4c-1.1,0.5-1.1,0.7-1.1,1c0,0.3-0.1,0.8-1.7,1.4l0.1-0.3
						c-0.5,0.3-1,0.7-1.6,0.9c-0.6,0.2-1.2,0.5-1.8,0.5c-0.3-0.2,0-0.3,0.4-0.4c0.4-0.1,0.8-0.3,0.8-0.5c-0.4,0.1-0.8,0.3-1.3,0.4
						c-0.4,0.1-0.9,0.3-1.3,0.4c-0.9,0.1-1.8,0.1-2.6-0.4c0.8,0.1,2,0.3,2.7,0.1c-0.8-0.4-1.3-0.6-1.7-0.7c-0.4-0.1-0.8-0.2-1.4-0.4
						l0.1,0c-0.5-0.2-0.9-0.4-1.4-0.6l-1.3-0.8l0.6,0.5c-0.3,0-0.6,0-0.9,0c-0.3-0.1-0.6-0.2-0.9-0.3c-0.6-0.2-1.1-0.6-1.6-1
						c-0.5-0.4-1-0.9-1.5-1.4c-0.6-0.5-1-1-1.7-1.5c2.5,2,0.7,0.1,1.3-0.1c-0.2-0.4-0.4-0.8-0.5-1.1c-0.1-0.3-0.1-0.6,0-0.5
						c-0.5-0.5-0.7-1.1-1-1.7c-0.2-0.6-0.4-1.3-1.1-2.2c0.1-0.1-0.4-1.5,0.2-1.3c-0.6-1.8-0.2,0.5-0.5,0.4c-0.3-0.7-0.6-1.4-0.7-2.3
						c-0.1-0.9-0.1-1.8-0.2-2.7c-0.1-0.9,0-2,0-3c0-0.5-0.1-1-0.1-1.6c0-0.5-0.1-1.1-0.2-1.6c-0.4-3.8-1-4.5-1.4-8.1
						c0.3-1.2,0.7,1,0.7,1c0.3-1.9,0.2-3.4,0-5.2c0.2,0.4,0.3,0,0.5-0.6c-0.1-1.5-0.7-1-0.4-2.9c0.2,0.3,0.6,0.8,0.8,1.5
						c-0.1-0.6-0.2-1.3-0.3-1.9l-0.2-1L11.2,47l0-0.2l0-0.1l0,0l0,0c0.4,0-3.7,0-2,0l0,0l0,0l0,0l0,0l0,0.1l1-1
						c-0.3,0.1-0.8,0.1-1.2,0.1c-0.3-0.3,0.6-0.4,1.2-0.5l-1.4,1.4l0-0.1l0,0l0,0l0,0l0,0l2.9,0l0,0l0,0l0,0l0,0c0,0,0,0.1,0,0.1
						c0,0.1,0,0.1,0.1,0.2c0-0.1,0-0.1,0-0.2l0-0.1l0,0l0,0l0,0l0,0l0,0l0,0l0,0l-3,0l0,0l0,0.1l1.5-1.5c-0.8,0.1-2,0-2.8-0.1
						c-0.9-0.1-1.6-0.3-2-0.2c0.3,0.2,0.6,0.5,1,0.6C5.6,45.3,6.1,45,6.6,45c1.6,0.1,2.2,0.7,2.2,0.9c-0.4,0-0.8,0-1.2-0.1
						c0.4,0.6,1.4,0.8,2.5,0.7L10,46.7l0-0.1l0,0c-0.1,0,0.6,0,0.3,0l0,0l0,0l0,0l0,0l0,0l0,0.2l0,0.3c0,0.2,0.1,0.4,0.1,0.6
						c0.1,0.4,0.1,0.9,0.2,1.3c0.1,0.9,0.2,1.7,0.2,2.5L10,50.4l0.7,2.6c-0.2,0.6-0.7,0.9-0.8-0.3c-0.4,1.8,0.3,1.6-0.2,3.2
						c-0.1,0.2-0.1,0.1-0.1-0.1l0.2,1.8c-0.2-0.4-0.6,0.3-0.5-0.8C8.9,60,10,62,9.3,63.2l-0.1-0.3c0.3,4.4,0.6,0.4,1.3,3.8
						c-0.5,0.7-0.9,1.5-1.4,2.3l0.6,0.4c0,0.5,0,1.4-0.2,1.2c0.7,1.7,0.2-0.3,0.8,0.6c-0.1,1.1,0.1,2.7,0.5,3.9
						c0.2,0.6,0.3,1.2,0.4,1.7c0.1,0.5,0.1,0.8-0.1,1c0.7,0.6-0.4-2.1,0.7,0c-0.4,0.5-0.1,1.2,0.4,1.9c0.3,0.4,0.6,0.7,0.8,1.2
						c0.3,0.4,0.5,0.9,0.7,1.4c-0.4-0.1-0.8-0.6-1-0.9c-0.2-0.2-0.2-0.2,0.1,0.9c0.8,0.3,1.3,1.1,1.9,2.1c0.3,0.5,0.7,0.9,1,1.4
						c0.4,0.4,0.8,0.8,1.1,1c0.1-0.1,0.4,0,0.8,0.1c0.4,0.2,0.9,0.5,1.5,0.8c1.2,0.6,2.7,1.4,4.2,1.6c-0.1,0.1,0.2,0.2,0.8,0.3
						c0.5,0.1,1.3,0.4,2.3,0.3c1.9,0.1,4.1-0.6,5.4-1.2l0,0.2c0.1-0.5,0.8-1,1.5-1.8c0.2-0.2,0.4-0.4,0.6-0.6
						c0.2-0.2,0.4-0.4,0.6-0.6c0.4-0.4,0.7-0.9,1-1.3c0.3,0.3,0.2,0.8-0.4,1.8c0.5-0.5,0.9-1,1.3-1.6c0.1-0.5,0.4-1.1,0.9-2.2
						l0.2,0.7c0.7-1.2,1.1-2.4,1.5-3.8c0.2-0.7,0.4-1.4,0.6-2.1c0.1-0.3,0.3-0.9,0.3-1.4c0-0.4,0-0.8,0.1-1.2
						c-0.5-0.2-1.4,2.6-1.8-0.8c0.3-0.1,0.8-0.3,0.9,0.6c0-0.3-0.2-1-0.1-1.6l0.5,1.4c0.2-1.5-0.4-0.8-0.3-1.9
						c0.4,0,0.3-0.9,0.6-0.7c0,0.3-0.2,1,0,1.5c0.1-1.3,0.3-2.9,0.6-3.4c-0.2,0.1-0.5,0-0.6-1c0-2.5,0.5-0.9,0.7-2.3
						c-0.3-0.6,0-2.2-0.6-2.2c0-0.7,0.3-0.9,0.4-1.1c-0.3-1.3-0.1-6-0.7-4.6l0,0.3c0-0.1,0-0.1,0-0.2c0,0,0,0,0,0v0
						c-0.6-4.2,0.3-8.8,0.1-13l0.2,0c-0.1-0.6-0.1-1.3-0.1-2l0-0.9c0-0.1,0-0.2,0.1-0.4l0.1-0.4c0.4-1.2,0.9-2.2,1.3-3
						c0.2-0.3,0.6-0.5,0.8-0.5c0.3,0,0.4,0.1,0.4,0.2c0.5-0.4,0.9-0.5,1.4-0.4c0.2,0,0.5,0.1,0.7,0.3c0.3,0.2,0.6,0.5,1,1
						c-0.7-0.4-0.7-0.2-0.6-0.2c0,0,0,0-0.1,0c-0.1-0.1-0.3-0.3-0.7-0.5c0.3,0.2,0.6,0.5,0.9,0.8c0.2,0.3,0.4,0.5,0.7,0.8
						c0.2,0.3,0.4,0.5,0.7,0.9c0.1,0.2,0.3,0.3,0.5,0.5c0.2,0.2,0.4,0.4,0.5,0.5c-0.4-0.1-0.3,0.2-0.3,0.5c0,0.1,0,0.2,0,0.3l0,0.1
						l0,0.2l0,0.3c0,0.4,0,0.8,0.1,1.1l0.2-0.9l0.1-0.4c0-0.1,0.1-0.3,0.1-0.4c0,0.1,0,0.3,0,0.4c0,0.2,0,0.3,0,0.5
						c0,0.3,0,0.6,0,0.9c0,0.6,0,1.2-0.1,1.8l-0.7-0.6c-0.8,5.1,1.4,9.2,0,13.1c0.5,1.3,0.3-2.8,0.9-1.6c0,0.6-0.1,1.2-0.2,1.7
						c-0.1,0.3-0.1,0.5-0.2,1c0,0.4-0.2,0.8,0,1.2c0.2,0.6,0.4,1.2,0.6,1.7c0.2,0.4,0.3,0.7,0.5,0.9c0.3,0.4,0.6,0.8,0.9,1.1
						c0.4,0.3,0.8,0.6,1.1,0.8c0.7,0.3,1.4,0.4,2,0.4c0.6-0.1,1.2-0.2,1.9-0.5c0.7-0.3,1.5-0.8,2.2-1.5c-0.3,0.1-0.6,0.1-0.6-0.2
						c0-0.3,0.3-0.8,1-1.9c0.4-0.5,0.7-0.9,1-1.2c0.2-0.4,0.3-0.7,0.4-0.8c0.1-0.1,0.3-0.2,0.4,0c0.1,0.1,0.1,0.2,0.1,0.4
						c0,0.1,0,0.2,0,0.3c0,0.1,0,0.2,0,0.4c-0.4,0.7-0.7,1-0.7,1c-0.4,0.8-1.1,1.7-0.2,1.1l0-0.4c0.1-0.1,0.2-0.2,0.4-0.5
						c0.2-0.2,0.4-0.5,0.6-0.8c0.1-0.2,0.2-0.3,0.2-0.5l0-0.5c0-0.3,0-0.8,0.1-0.9c0.1-0.9,0.2-1.5,0.4-1.1
						c-0.2-1.8-0.4-0.8-0.5,0.6c0.3-3,0-4.7,0.2-7.8c-0.1,0.5-0.4,0.9-0.4,0.5c0.3-4.5-0.5-2-0.6-5.1c0.4-1.7,0.9,0.6,0.6-2.5
						c0.2-1.9,0.6-0.4,0.8,0.4c-0.1-0.4-0.1-0.7-0.1-1c0-0.2,0-0.2,0-0.3c0-0.1,0-0.1,0-0.2c0-0.1,0.1-0.2,0.2-0.3
						c0.1-0.1,0.1,0,0.2-0.2l0.3-0.3c0.7-0.8,1.4-1.3,1.9-1.6c-0.2,0.3-0.4,0.6-0.6,0.9c0.4-0.6,0.8-1,1.1-1.2c-0.2,0-0.5,0-0.7,0
						c0.5-0.4,0.9-0.5,0.9-0.3c0-0.2-0.1-0.4-0.2-0.5c-0.1-0.2-0.2-0.4,0.2-0.8c0.3,0,0.8,0.1,1.2,0.3c0.3,0.2,0.6,0.7,0.5,1
						c-0.4-0.6-0.5-0.6-0.6-0.7c-0.1,0-0.1,0.1-0.1,0.2c-0.1,0.2-0.2,0.4-0.5,0.3c0.1,0,0.1,0,0.2,0c0.1,0.1,0.1,0.1,0.2,0.3
						c0,0.1-0.1,0-0.2,0c0.1,0.4,0.3,0.7,0.5,0.9c0.2,0.2,0.3,0.3,0.5,0.4c0.2,0.1,0.4,0.2,0.6,0.5c0.1,0.1,0.2,0.4,0.3,0.4
						c0,0,0.1,0.1,0.1,0.2c0,0,0,0.1,0,0.1c0,0.1,0,0.2,0,0.3c-0.4-0.5-0.7,0.8-0.6,1.4c0-1.5,0.6-0.7,0.9,0.6
						c-0.3,2.3,0.2,2.5,0.2,3.8l0.1-1.4c0.4,0.5,0.3,1.6,0.4,3.3c-0.3,0.1-0.2-1.5-0.3-0.9c0.6,1.8-0.6,4.1-0.2,6.6
						c-0.2,1.2-0.7,0.1-0.8,1.1c0.5,2.8-0.5,3.1-0.1,6c0.5-0.9,0.4-1,0.8,1.1L65.5,60l0.7,3.1c0-1.5-0.3-3.1-0.2-4
						c0.4,1.5,0.3,1.3,0.7,0.6c-0.7,2,0.4,4-0.1,6.3l-1.2-0.1c0,0.2-0.1,0.4-0.1,0.6c0,0.1,0,0.3,0,0.4l0,0.5l0,0.5l0,0.3
						c0,0.1,0,0.2,0.1,0.2l0.6,0.8c0.5,0.7,0.7,0.9,1.1,1.3c0.4,0.3,0.7,0.7,1.1,1c0.5,0.3,0.9,0.6,1.4,0.9c0.7,0.3,1.3,0.6,2,0.7
						c1.4,0.2,3.1-0.4,4.3-1.6c-0.2,0.2-0.6,0.5-0.9,0.7c-0.3,0.2-0.7,0.3-1,0.5c0.2-0.2,0.5-0.4,0.8-0.7c0.3-0.3,0.7-0.7,1.1-1
						c0.7-0.8,1.2-1.7,1.4-2.5c0.1,0.1,0.2,0,0.3,0c0,0,0.1,0,0.1,0c0,0,0,0,0.1,0c0.2,0,0.5-0.3,0.7-0.4c-0.1,0,0.2-0.5,0.5-0.7
						c0.3-0.2,0.7-0.3,0.9-0.7c0.4,0.2,0.9,0.5,1.2,0.9c0.6,0.3,1.1,0.6,1.6,0.9c0.3,0.2,0.4,0.2,0.5,0.2c0.2,0,0.3,0.1,0.4,0.2
						c0.1,0.1,0.3,0.2,0.4,0.4c0.1,0.2,0.2,0.4,0.3,0.6c0.1,0.4,0.1,1-0.3,1.5c0-0.5-0.2-0.4-0.3-0.5c-0.1-0.1-0.2-0.3-0.3-0.8
						c0,0.5-0.4,0.8-0.2,1c-0.2,0.1-0.5,0.5-1,1c-0.5,0.5-1.3,0.8-1.8,0.8c-0.2,0.1-0.3,0.3-0.5,0.5c-0.1,0.1-0.2,0.2-0.4,0.3
						c-0.1,0-0.2,0.1-0.3,0.1c-0.1,0-0.2,0.1-0.3,0.1c-0.1-0.1,0-0.2,0-0.2c0,0,0,0.1-0.2,0.1c-0.2,0-0.4,0.1-0.6,0.1
						c-0.4,0.1-0.6,0.2,0,0.4c-1.8-0.6-4.3-0.6-6.8-0.5c-2.5,0-4.9,0.2-6.4-0.5c-2.5,0-5.7,0-8,0.1c0.1-0.1,0-0.2,0.5-0.2
						c-1.6-0.2-2.1,0.1-2.7,0.4c-0.5,0.3-1.1,0.6-3,0.6c-2-0.4,1.9-0.5,0.7-0.7c-0.2-0.3-0.5-0.4-1-0.4c-0.5,0-1.2,0.2-1.9,0.3
						c-0.4,0.1-0.7,0.2-1.1,0.3c-0.1,0-0.2,0.1-0.3,0.1l-0.4,0.2l-0.7,0.3c-0.9,0.4-1.9,1-2.4,1.7c0.1-0.3,0.3-0.5,0.4-0.8
						c-0.2,0.1-0.3,0.3-0.5,0.5c-0.1,0.2-0.2,0.4-0.3,0.6c-0.1,0.2-0.1,0.5-0.1,0.7c0,0.3,0.1,0.5,0.1,0.8c0,0.8,0.1,1.1,0.1,1.6
						c0.1,0.4,0.1,0.9,0.2,1.4c0.1,1,0.2,2,0.2,3.1c0,0-0.1-0.1-0.2,0c0.3,1.1,0.6,2.6,0.7,4.2c0,0.4,0.1,0.8,0.1,1.2l0,0.7l0,0.4
						l0,0.2l0.1,0.2c0.6,0.9,1.2,1.6,2,2c-0.6-0.1-0.9-0.3-1.1-0.4c-0.2-0.1-0.2,0-0.1,0.4c0.3,0.3,0.5,0.4,0.6,0.3
						c0.1,0,0.2-0.1,0.3-0.2c0.2-0.2,0.5,0,1.9,0.3c0.4,0.2,1.2,0.4,1.9,0.5c0.7,0.1,1.3,0.1,1.6,0.3c-0.9,0.3-1.9,0.5-3,0.4
						c0.8,0.4,1.9,0.3,2.8-0.1c0.9-0.3,1.7-0.9,2.4-1.1l0,0.4c0.2-0.1,0.5-0.3,0.7-0.4c0.1-0.1,0.2-0.2,0.4-0.2
						c0.1-0.1,0.3-0.2,0.4-0.3c0.5-0.3,0.9-0.7,1.2-1c0.2-0.2,0.3-0.3,0.5-0.4c0-0.2,0-0.4,0-0.6c0-0.4-0.1-0.8-0.1-1.2
						c0-0.2,0-0.4-0.1-0.6c0-0.2,0-0.4-0.1-0.5c0-0.3-0.1-0.6-0.1-0.9c0-0.3-0.1-0.7-0.1-1.1c0-0.3,0-0.6,0-0.9
						c-0.1,0.1-0.2,0.1-0.2,0.2c-0.2-0.5-0.3-1-0.3-1.2c0-0.3,0.1-0.4,0.2-0.5c0.5,0.1,0.8,0.2,1.4,0c0.3,0.3,0.5,0.5,0.7,0.8
						c0.1,0,0.2-0.1,0.3-0.1c0.2,0,0.5-0.1,0.8-0.1c0.6-0.1,1.3-0.2,2-0.3c1.4-0.2,3-0.4,4.4-0.4c-1.5,0.6-4.6,0.9-6.5,1.2
						c1.5,0,5-0.1,5.8-0.4c-0.6,0.1-1.3,0.3-1.9,0.1c1.8-0.6,4.2-1,7.1-0.9c-0.3,0.7,1.6,1,3.9,1.1c1.1,0.1,2.4,0.1,3.4,0.2
						c1.1,0.1,2,0.2,2.6,0.5c2.7-0.5,5.5-0.7,8.4-2.2c0.4-0.2,0.7-0.4,1.1-0.6c0.3-0.2,0.7-0.5,1-0.7c0.6-0.6,1.3-1.2,1.7-1.9
						c1.1-1.3,1.8-2.9,2.3-4.4c-1,0.9-0.8,0.4-0.6-0.2c0.2-0.7,0.5-1.6-0.2-1.6c0.3-1.4,0.5-1.9,0.6-2c0.6-1.4,1.2-2.6,1.6-4.3
						c0.2-0.6,0.3-0.2,0.3,0.4c0,0.5-0.1,1.2,0.1,1.2c0.2-0.9,0.3-1.5,0.3-1.9c0.1-0.4,0.2-0.5,0.2-0.7c0.1-0.3,0.4-0.3,0.3-1.8
						c-0.4,0.6-0.6-1.4-1.7-3.5c0.2,0.5,0.3,1.1,0.5,1.6c0.1,0.6,0.2,1.1,0.2,1.6c-0.5-1.3-0.9-2.2-1.2-2.9
						c-0.3-0.7-0.6-1.2-0.8-1.8c-0.6-1-1.3-2.2-3.6-3.3c0.5,0.2,1,0.4,1.6,0.6c-0.6-0.4-1.4-0.9-2.3-1.3c-0.9-0.5-2-0.9-3.1-1.3
						c-2.1-0.7-4.3-1.1-5.5-0.8c-0.4-0.2-0.8-0.7,0.2-0.5c-0.9-0.2-1.9-0.4-2.8-0.5c-0.2,0-0.2,0-0.2,0l-0.1,0l-0.2,0l-0.4,0
						c-0.1-0.2-0.2-0.4-0.2-0.7c-0.1-0.8-0.1-1.8-0.2-2.7c-0.1-1.8-0.1-3.4,0.1-4.8l0.3,0.4c-0.1-1-0.6-1.7-0.3-3
						c0.1,0.1,0.3,0.4,0.3-0.1c-0.1-0.3-0.2-0.9-0.3-1.7c0-0.2,0-0.4-0.1-0.6c0-0.1,0-0.1,0-0.2c0-0.1,0-0.3,0-0.4
						c0.1,0.2,0.2,0.3,0.3,0.4c0-0.1,0.1-0.3,0.1-0.4c0,0,0-0.1,0-0.2c0.1,0,0.1,0,0.2,0c0.1-0.1,0.3-0.1,0.4-0.1
						c0.1,0,0.1-0.1,0.3-0.1c0.3-0.1,0.5-0.1,0.8-0.2c1-0.2,2-0.6,3-1c0.5-0.2,1-0.4,1.6-0.8c0.3-0.1,0.6-0.4,0.9-0.6
						c0.3-0.2,0.6-0.5,0.8-0.8c0.1,0.1,0.6,0,1.1-0.5c0.5-0.5,0.9-1.4,0.9-2.5c0-0.5-0.1-1.1-0.2-1.7c-0.2-0.6-0.4-1.1-0.6-1.5
						c-0.4-0.8-0.8-1.4-1.2-1.9l0.2,0c-0.6-0.7-1.2-1.3-1.8-1.8c-0.1-0.1-0.4-0.4-0.7-0.6c-0.3-0.2-0.5-0.4-0.8-0.6l-0.4-0.3
						c-0.1-0.1-0.2-0.2-0.4-0.2c-0.3,0-0.6,0-0.9,0c-0.3,0-0.6,0-0.9,0l-0.6,0c-0.3,0-0.6,0-1,0.1c-0.6,0.1-1.3,0.1-1.9,0.2
						c-2.5,0.2-5,0.5-7.8,0.7c-2.2-0.6-6.5-0.6-10.7-0.7l2.5,2.5c0-0.6,0-1.2,0-1.7l0-0.4c0-0.1,0-0.3,0-0.3c0-0.1,0-0.1,0.1-0.2
						c0-0.1,0.1-0.2,0.2-0.2c0,0,0.2-0.1,0.3-0.2c0.1-0.1,0.3-0.1,0.5-0.2c-0.6,0.2-0.3-0.6,0.4-1.1c0.3-0.1,0.6-0.2,0.9-0.4
						c0.3-0.1,0.6-0.3,0.9-0.4c0.2-0.1,0.3-0.1,0.4-0.1c0.2,0,0.3,0.1,0.3,0.3c-0.1,0-0.4,0-0.4,0c0,0,0,0.1,0.1,0.1
						c0.1,0,0.2,0.1,0.2,0.1c0.2,0.1,0.4,0.1,0.6,0.2c0.4,0.1,0.9,0.1,1.4,0.2c1.1,0,2.3,0,3.3,0l0.3-1.1c2.7,0.8,6.3,0.6,9.6,0.5
						c1.6-0.1,3.2-0.2,4.5-0.1c1.4,0,2.4,0.2,3.3,0.5c1.5-0.3,3.5-0.6,5.1-1.9l0.2,0.5c0.6-0.4,1.2-0.9,1.7-1.5
						c0.4-0.6,0.8-1.2,1-1.9c0.4-1.3,0.3-2.4,0.2-3.4c-0.2-1-0.5-1.9-0.9-2.9c-0.1-0.2-0.2-0.5-0.3-0.7c-0.1-0.2-0.2-0.3-0.3-0.5
						c-0.1-0.2-0.2-0.4-0.3-0.6c-0.2-0.4-0.5-0.8-0.8-1.1c-0.1-0.2-0.3-0.4-0.4-0.6c-0.1-0.2-0.2-0.5-0.5-0.4
						c0.4-0.1,0.5,0.2,0.7,0.3l0.6,0.5C94.2,8,94,7.8,93.9,7.6c-0.1-0.1-0.2-0.2-0.2-0.3l-0.1-0.1c-0.1,0-0.1,0-0.2,0
						c-0.5,0-1,0-1.4,0.1c-0.4,0.1-0.9,0.2-1.2,0.3c-0.2,0.1-0.4,0.1-0.5,0.1c-0.1,0.1-0.2,0.1-0.3,0.2c-0.8,0.4-1.5,0.8-2.7,0.9
						l-0.7-0.8c-4.5,0-9-0.7-13.4,0c0.1-0.1,0.2-0.4,0.9-0.4c-2.1,0-8.1-0.6-7.4,0.6c0-0.4-1.2-0.4-2.8-0.2
						c-1.6,0.2-3.4,0.9-4.6,1.4l0.2-0.7c-0.5,0.3-0.9,0.6-1.2,0.9c-0.3,0.3-0.6,0.5-0.8,0.7c-0.6,0.4-1.2,0.9-2.5,1.8
						c-0.6,0.4-0.8,0,0.1-0.4c-1.1,0.6-1.4,1-1.7,1.5c-0.2,0.2-0.3,0.5-0.6,0.8c-0.3,0.3-0.6,0.7-1.1,1.2c0.1-0.4,0.3-0.7,0.4-1.1
						c-1.7,2-1.3,2-1.7,3.3C50,18,49.5,19,49,19.9c-0.5,0.9-0.9,1.7-1.2,1.8c0.2,0.4,0.3,1.8,0,3.2c-0.2,0.2-0.3-0.4-0.3-0.6
						c0,0.2-0.1,0.4-0.1,0.6c0,0.2-0.1,0.3-0.1,0.5c0,0.2,0,0.3,0,0.5c0,0.3,0,0.6,0.1,0.9l0,0.1c0,0,0,0,0,0l-0.1,0l-0.2,0
						c-0.1,0-0.3,0.1-0.4,0.1c-0.3,0-0.6,0.1-0.9,0.1c-0.4,0-0.9-0.1-1.4-0.2c-0.1-0.2-0.2-0.3-0.4-0.3c0.6,0,1.3,0,1.8,0
						c0.3,0,0.5,0,0.7,0c0.2,0,0.4,0,0.5,0c0.1,0,0.1,0,0.2,0c0,0,0.1,0,0.1,0c0,0,0,0,0-0.1c0-0.1,0-0.1,0-0.1
						c-0.1-0.1-0.2-0.1-0.2-0.1c0,0-0.2-0.1-0.3-0.2c-0.1-0.1-0.2-0.1-0.3-0.2c-0.2-0.2-0.2-0.3-0.4-0.6c0,0.1,0.1,0.2,0,0.3
						c0,0.1-0.1,0.2-0.3,0.3c-0.5,0.1-1.1,0.2-1.6,0.3c-0.6,0.1-1.1,0.1-1.7,0.2c-0.3,0-0.5,0-0.8,0c-0.3,0-0.6,0-0.9,0
						c-0.1,0-0.3-0.1-0.4-0.1l0.3-0.1c-0.7,0-1.3,0.2-1.8,0.4c-0.5,0.1-0.8,0.2-1.2,0.3c-0.4,0.1-0.7,0.2-1.1,0.4
						c-0.1-0.1-0.4,0-0.7,0.1c-0.3,0.1-0.7,0.4-1.2,0.6c-0.4,0.3-0.8,0.6-1.2,0.9c-0.4,0.3-0.7,0.6-1,0.9c0.4,0.3-0.9,1.5,0.6,0.7
						c-0.2,0.1,0.1-0.2,0.8-0.8c0.2-0.1,0.3-0.3,0.4-0.4c0,0,0,0.1,0,0.1c0.7-0.6,1.7-1.2,3-1.8c-0.9,0.8-1.8,1.5-3.1,2.2
						c-0.3,0.7-0.6,1.5-0.8,1.9c-0.9,0.3-2,1.1-2.9,1.9c-0.9,0.8-1.6,1.5-2.1,1.9c-0.1,0.2-0.2,0.4-0.3,0.5c0,0.1-0.1,0.2-0.1,0.3
						l0,0.3c0,0.4,0,0.9,0,1.2c0,0.5,0.1,1,0.1,1.5c0.1,1,0.1,2.1,0.2,3.1c0.1,2,0.4,3.9,0.9,5.1c0.1,1.1-0.3,1.2-0.5,1.6
						c-0.1-0.6-0.1-1.4-0.2-1.7c0.3,2.1,0.1,6.4,0.8,6.9c-0.3,2.7-0.7-1.5-0.6,2.2l-0.2-0.5c-0.6,3.7-0.1,6.6,0.3,9.7
						c0.2,1.5,0.5,3.1,0.4,4.7c-0.1,1.6-0.4,3.4-1.5,4.8c0.3-0.4,0.4-0.6,0.6-0.7c-0.4,0.9-1,1.8-1.7,2.2c-0.6,0.4-1.5,0.5-2.4,0.3
						c-0.5-0.1-0.9-0.3-1.4-0.5c-0.1-0.1-0.2-0.1-0.4-0.2l-0.3-0.1c-0.2-0.1-0.3-0.2-0.5-0.3l-0.2-0.2c-0.1-0.1-0.2-0.1-0.2-0.2
						l0-0.6l0-1.5c-0.1-4.7-0.2-9.5,0.4-14c0.2-2.6-0.3-2.9-0.6-4.5l0.6-0.6l-0.7-2.7c-0.3-1.9,0.1-3.6,0.4-5.4
						c0.3-1.8,0.5-3.8-0.4-6.3c-0.1,0.2-0.2,0.5-0.3,0.7c0-0.5-0.2-1-0.3-1.7c-0.2-0.6-0.5-1.5-0.9-2c-0.4-0.6-0.9-1-1.3-1.1
						c-0.4-0.2-0.6-0.2-0.5-0.3c-0.1,0.1-0.4,0.2-0.8,0.3c-0.2,0-0.6,0-0.8,0l-0.1-0.3l-4.3,0.5c-3.3-0.2,0.5-1.3-4.3-1.3
						C5.7,35,2.4,35.8,3,36c0.7,0,1.9,0.2,1.9,0.5l-1.6,0.2c-0.3,0.9-1.6,1.9,2.5,2.5l2.8-0.6l0.9,0.5l-2.4,0c1.3,0.4,2.2,0,3.2-0.2
						c0.2,0.2,0.6,0.4,1.2,0.5l2.8-0.9c0.3,0.4-1.2,0.7,0.6,0.9c1.3-0.4-1.2-0.8,0.9-1.1c0.3,0.1,0.5,0.2,0.6,0.3
						c0.1,0.1,0.1,0.1,0.2,0.2c0,0.1,0.1,0.1,0.2,0.1c0.1,0,0.2-0.1,0.4-0.1c-0.1,0.3-0.3,0.3-0.5,0.4c0.6-0.2,0.6,0.6,1.3,1.4
						c-0.1,0.3-0.1,0.8,0,1.2c0,0.5,0.1,1,0.1,1.4c0,0.9,0,1.7-0.4,1.7c0.1,0.2,0.3,0.8,0.5,1.5c0.2,0.7,0.3,1.6,0.3,2.2
						c-1.1-2.4-0.1,4.8-1.2,4.2c0.9,1.7,0.4,6.3,0.9,9.4c-0.1-0.2-0.2-0.5-0.2-0.8c-0.1,1.7-0.4,2.3-0.5,3.4c0.8,0.2,1,2.9,1.4,4.4
						c-0.8,2.1-0.9-1.3-1.6-0.6c0.6-0.1,0.6,3.7,1.2,3c-0.5,1.6-0.2,1.4-0.9,2.3c0.2,0.1,0.4,0.2,0.4,0.4c0,0.1,0.1,0.2,0.1,0.3
						c0,0.1,0,0.4,0,0.6c0,0.4,0,0.9,0,1.4c0,0.2,0.1,0.5,0.1,0.7c0,0.1,0.2,0.2,0.3,0.3c0.1,0.1,0.3,0.1,0.4,0.2
						c1.2,1.3,1.5,1.6,1.7,1.9c0.2,0.2,0.3,0.4,2,0.9c0.8,0.4,0.4,0.4-0.2,0.4C21.7,80.9,20.9,80.6,20.9,80.6z M41.6,29.9
						C41.6,29.9,41.6,29.9,41.6,29.9c-0.4,0.1-0.8,0.1-1.1,0.1C40.7,29.9,41,29.9,41.6,29.9z M47.2,29.8c-0.5,0-1,0-1.5,0
						c-0.4,0-0.8,0-1.2,0c-0.2-0.2,0-0.4,0.5-0.4c-0.1,0.1,0.1,0.1,0.5,0.2c0.2,0,0.5,0.1,0.8,0.1C46.6,29.8,46.9,29.8,47.2,29.8z
						 M34.8,28.1c0.8-0.6,1.1-0.7,1.3-0.6c-0.4,0.2-0.8,0.5-1.4,0.9c0,0,0,0.1-0.1,0.1C34.6,28.4,34.7,28.3,34.8,28.1z"/>
					<path class="st1" d="M33.9,29.7c-0.1,0.1-0.1,0.2-0.3,0.3c0.2-0.1,0.3-0.2,0.5-0.2c0.1-0.1,0.1-0.2,0.1-0.3
						C34.1,29.5,34,29.6,33.9,29.7z"/>
					<path class="st1" d="M39.6,58.5l0-0.1c0,0.1,0,0.2-0.1,0.2C39.6,58.6,39.6,58.6,39.6,58.5z"/>
					<path class="st1" d="M87.4,17.3l0,0.1c0.2,0,0.3-0.1,0.4-0.1L87.4,17.3z"/>
					<path class="st1" d="M33,84.9c-0.1,0-0.2,0-0.3,0.1C32.7,85.1,32.8,85,33,84.9z"/>
					<path class="st1" d="M22.8,87.3c-0.5-0.2-1-0.5-1.4-0.8C21.9,86.9,22.4,87.1,22.8,87.3z"/>
					<path class="st1" d="M15.9,82.1c-0.1,0-0.2,0-0.3,0l0,0L15.9,82.1z"/>
					<path class="st1" d="M69.7,48.5c0,0.1,0,0.3,0,0.4C69.8,49.7,69.7,49.1,69.7,48.5z"/>
					<path class="st1" d="M53.3,63.7c0.3-0.2,0.6-0.4,0.8-0.6C53.7,63.3,53.3,63.4,53.3,63.7z"/>
					<path class="st1" d="M82.3,76.9C82.4,76.9,82.3,76.9,82.3,76.9c-0.1,0-0.2,0.1-0.4,0.1L82.3,76.9z"/>
					<path class="st1" d="M55.4,61.9c-0.5,0.5-0.9,0.9-1.3,1.2C54.6,62.9,55.1,62.4,55.4,61.9z"/>
					<path class="st1" d="M7,44.4l-0.4-0.1c0,0,0,0.1-0.1,0.1L7,44.4z"/>
					<path class="st1" d="M6.6,44.4c-0.1,0-0.3-0.1-0.4-0.1C6.4,44.4,6.5,44.4,6.6,44.4z"/>
					<path class="st1" d="M5.4,44c0.2,0.1,0.5,0.2,0.8,0.3C5.9,44.2,5.6,44,5.4,44z"/>
					<path class="st1" d="M11.6,55.4l0.2,0.1C11.8,55.5,11.7,55.4,11.6,55.4z"/>
					<path class="st1" d="M11.7,59.2c0-0.9,0.4-2.3,0.3-3.6l-0.2-0.1C12.1,56.1,11.3,58.3,11.7,59.2z"/>
					<path class="st1" d="M10.2,75.3c-0.3-1.1-0.3-2.2-0.4-3.3c-0.1,0.6-0.3,1.4-0.6-0.1c0,2.1,0.1,1.9,0.2,1.7
						c0.1-0.1,0.2-0.2,0.3,0c0.1,0.1,0.1,0.3,0.2,0.5C9.9,74.4,10,74.8,10.2,75.3z"/>
					<path class="st1" d="M14.5,84.7c-1.3-1.3-0.3,0.2-0.4,0.2C15.1,85.7,15.3,85.9,14.5,84.7z"/>
					<path class="st1" d="M42.9,38.8c0,0.2,0,0.4,0.1,0.5C43.5,39.2,42.9,39.2,42.9,38.8z"/>
					<polygon class="st1" points="50.2,47.6 50.5,46.3 50.1,45.7 					"/>
					<polygon class="st1" points="46.6,55.7 46.5,55.2 46.7,57.4 					"/>
					<path class="st1" d="M67.5,72.9l0.4,0.6C68.8,73.4,69,72.7,67.5,72.9z"/>
					<path class="st1" d="M57.5,86.1c0.2-0.2,0.4-0.5,0.3-0.9c0.1,0,0.1-0.1,0.2-0.1c-0.1,0-0.2,0-0.4,0
						C57.6,85.4,57.4,85.8,57.5,86.1z"/>
					<polygon class="st1" points="73.6,22.4 72.6,22.6 74.6,22.4 					"/>
				</g>
			</g>
		</g>
	</g>
</g>
<g>
</g>
<g>
</g>
<g>
</g>
<g>
</g>
<g>
</g>
<g>
</g>
<g>
</g>
<g>
</g>
<g>
</g>
<g>
</g>
<g>
</g>
<g>
</g>
<g>
</g>
<g>
</g>
<g>
</g>
</svg>
