<?xml version="1.0" encoding="utf-8"?>
<!-- Generator: Adobe Illustrator 22.0.1, SVG Export Plug-In . SVG Version: 6.00 Build 0)  -->
<svg version="1.1" id="Layer_1" xmlns="http://www.w3.org/2000/svg" xmlns:xlink="http://www.w3.org/1999/xlink" x="0px" y="0px"
	 viewBox="0 0 220.9 66.7" style="enable-background:new 0 0 220.9 66.7;" xml:space="preserve">
<style type="text/css">
	.st0{clip-path:url(#SVGID_2_);}
	.st1{fill:#009DDC;}
	.st2{fill:#2FD1D1;}
	.st3{fill:#99CA3C;}
	.st4{fill:#FFD200;}
	.st5{fill:#0F4F75;}
</style>
<g>
	<g>
		<defs>
			<path id="SVGID_1_" d="M46.2,33.5c-0.3,0-0.5-0.1-0.8-0.3c-0.4-0.3-0.5-0.8-0.3-1.3l0.7-1.8c-5,0.1-6.3,2.6-6.6,3.3l-0.1,0.2l0,0
				l-3.2,8.7c-1.9,5.1-6.3,5.5-6.3,5.5h-5.7l6.4-17.3c1.2-3.7,5.8-9.8,16-9.8h3l0.7-2c0.1-0.4,0.5-0.6,0.8-0.7
				c-4.3-5.9-11.3-9.7-19.1-9.7C18.6,8.4,8,19,8,32.1c0,13.1,10.6,23.7,23.7,23.7s23.7-10.6,23.7-23.7c0-1.2-0.1-2.4-0.3-3.6
				l-8.3,4.9C46.6,33.5,46.4,33.5,46.2,33.5z M21.4,25.2V25v-4.2h14c-4.4,2.5-6.5,6.4-7,9l-0.1,0.4H27C21.8,30.1,21.4,26,21.4,25.2z
				"/>
		</defs>
		<clipPath id="SVGID_2_">
			<use xlink:href="#SVGID_1_"  style="overflow:visible;"/>
		</clipPath>
		<g class="st0">
			<path class="st1" d="M53.1,48.9c0,0-47.9,30-75.3-10.1c0,0-25.6-35.1,18.7-51.9C40.7-29.9-8.7,38.4,53.1,48.9z"/>
			<path class="st2" d="M53.1,48.9c0,0-56,7.7-64.6-40.1c0,0-8.9-42.5,38.3-39.7C74.2-28,1,14,53.1,48.9z"/>
			<path class="st3" d="M53.8,48.8c0,0-50.3-19.4-35.5-63.3c0,0,12.2-39.7,50.4-15.5C106.9-5.9,26.4-4.5,53.8,48.8z"/>
			<path class="st4" d="M52.8,49.1c0,0-28.3-44.6,9-70.4c0,0,32.7-24.1,48.6,17.2C126.4,37.2,62.3-8.7,52.8,49.1z"/>
		</g>
	</g>
	<g>
		<g>
			<path class="st5" d="M74.9,30.5h-1v-6c0-0.6-0.2-1.2-0.7-1.6c-0.4-0.4-1-0.7-1.6-0.7c-0.6,0-1.2,0.2-1.6,0.7
				c-0.5,0.4-0.7,1-0.7,1.6v6h-1.2c-0.6,0-1.2,0.2-1.6,0.7c-0.4,0.4-0.7,1-0.7,1.6c0,0.6,0.2,1.2,0.7,1.6c0.4,0.4,1,0.7,1.6,0.7h1.2
				v11.6c0,1.3,0.4,2.4,1.3,3.3c0.9,0.9,2,1.3,3.3,1.3c0.6,0,1.2-0.2,1.6-0.7c0.4-0.4,0.7-1,0.7-1.6c0-0.6-0.2-1.2-0.7-1.6
				c-0.4-0.5-1-0.7-1.6-0.7V35.1h1c0.6,0,1.2-0.2,1.6-0.7c0.5-0.5,0.7-1,0.7-1.6c0-0.6-0.2-1.2-0.7-1.6
				C76.1,30.7,75.6,30.5,74.9,30.5z"/>
			<path class="st5" d="M93.6,30.5c-0.9,0-1.9,0.2-3,0.7c-1.1,0.5-2,1.1-2.6,1.8v-0.3c0-0.6-0.2-1.1-0.7-1.5c-0.4-0.4-1-0.6-1.6-0.6
				c-0.6,0-1.1,0.2-1.6,0.6c-0.4,0.4-0.6,0.9-0.6,1.5V49c0,0.6,0.2,1.1,0.6,1.6c0.4,0.4,1,0.6,1.6,0.6c0.6,0,1.2-0.2,1.6-0.6
				c0.4-0.4,0.7-0.9,0.7-1.6v-7.9c1.5-4.2,3.5-6.3,6.1-6.3c0.6,0,1.1-0.2,1.6-0.7c0.4-0.4,0.6-1,0.6-1.6c0-0.6-0.2-1.1-0.6-1.5
				C95.2,30.7,94.5,30.5,93.6,30.5z"/>
			<path class="st5" d="M116,30.5c-0.6,0-1,0.2-1.4,0.5c-0.4,0.3-0.7,0.8-0.8,1.3c-1.7-1.2-3.6-1.8-5.5-1.8c-2.8,0-5.1,1-7,3
				c-1.9,2-2.8,4.5-2.8,7.3c0,2.9,0.9,5.3,2.8,7.3c1.9,2,4.2,3,7,3c2,0,3.8-0.6,5.5-1.8c0.1,0.5,0.4,1,0.8,1.3
				c0.4,0.3,0.9,0.5,1.4,0.5c0.6,0,1.1-0.2,1.5-0.6c0.4-0.4,0.6-0.9,0.6-1.6V32.7c0-0.6-0.2-1.1-0.6-1.6
				C117.1,30.7,116.6,30.5,116,30.5z M112.2,45.1c-1,1.1-2.3,1.7-3.9,1.7c-1.6,0-2.9-0.6-3.9-1.7c-1-1.1-1.5-2.5-1.5-4.2
				c0-1.7,0.5-3.1,1.5-4.2c1-1.1,2.3-1.7,3.9-1.7c1.6,0,2.9,0.6,3.9,1.7c1,1.2,1.6,2.6,1.6,4.2C113.8,42.6,113.3,44,112.2,45.1z"/>
			<path class="st5" d="M127.6,22.2c-0.6,0-1.2,0.2-1.6,0.7c-0.4,0.4-0.7,1-0.7,1.6v0.9c0,0.6,0.2,1.2,0.7,1.6
				c0.4,0.4,1,0.7,1.6,0.7c0.6,0,1.1-0.2,1.6-0.7c0.4-0.4,0.6-1,0.6-1.6v-0.9c0-0.6-0.2-1.2-0.6-1.6
				C128.7,22.4,128.2,22.2,127.6,22.2z"/>
			<path class="st5" d="M127.5,30.5c-0.6,0-1.2,0.2-1.6,0.6c-0.4,0.4-0.6,1-0.6,1.6V49c0,0.6,0.2,1.1,0.7,1.6c0.4,0.4,1,0.7,1.6,0.7
				c0.6,0,1.1-0.2,1.6-0.6c0.4-0.4,0.6-1,0.6-1.6V32.8c0-0.7-0.2-1.2-0.6-1.6C128.7,30.8,128.2,30.5,127.5,30.5z"/>
			<path class="st5" d="M144.5,30.5c-1.6,0-3,0.4-4.4,1.3c-0.4-0.9-1.1-1.3-2-1.3c-0.6,0-1.1,0.2-1.6,0.6c-0.4,0.4-0.6,0.9-0.6,1.6
				V49c0,0.6,0.2,1.1,0.6,1.6c0.4,0.4,0.9,0.6,1.5,0.6c0.6,0,1.1-0.2,1.6-0.6c0.5-0.4,0.7-0.9,0.7-1.6v-9.9c0-1.2,0.4-2.1,1.2-3
				c0.8-0.8,1.8-1.2,3-1.2c1.2,0,2.2,0.4,3,1.2c0.8,0.8,1.3,1.8,1.3,3V49c0,0.6,0.2,1.1,0.7,1.6c0.4,0.4,1,0.6,1.6,0.6
				c0.6,0,1.1-0.2,1.5-0.6c0.4-0.4,0.6-0.9,0.6-1.6v-9.9c0-2.3-0.8-4.4-2.5-6.1C148.9,31.3,146.9,30.5,144.5,30.5z"/>
			<path class="st5" d="M162.5,22.2c-0.6,0-1.2,0.2-1.6,0.7c-0.4,0.4-0.7,1-0.7,1.6v0.9c0,0.6,0.2,1.2,0.7,1.6
				c0.4,0.4,1,0.7,1.6,0.7c0.6,0,1.1-0.2,1.6-0.7c0.4-0.4,0.6-1,0.6-1.6v-0.9c0-0.6-0.2-1.2-0.6-1.6
				C163.7,22.4,163.2,22.2,162.5,22.2z"/>
			<path class="st5" d="M162.5,30.5c-0.6,0-1.2,0.2-1.6,0.6c-0.4,0.4-0.6,1-0.6,1.6V49c0,0.6,0.2,1.1,0.7,1.6c0.4,0.4,1,0.7,1.6,0.7
				c0.6,0,1.1-0.2,1.6-0.6c0.4-0.4,0.6-1,0.6-1.6V32.8c0-0.7-0.2-1.2-0.6-1.6C163.7,30.8,163.2,30.5,162.5,30.5z"/>
			<path class="st5" d="M179.5,30.5c-1.6,0-3,0.4-4.4,1.3c-0.4-0.9-1.1-1.3-2-1.3c-0.6,0-1.1,0.2-1.6,0.6c-0.4,0.4-0.6,0.9-0.6,1.6
				V49c0,0.6,0.2,1.1,0.6,1.6c0.4,0.4,0.9,0.6,1.5,0.6c0.6,0,1.1-0.2,1.6-0.6c0.5-0.4,0.7-0.9,0.7-1.6v-9.9c0-1.2,0.4-2.1,1.2-3
				c0.8-0.8,1.8-1.2,3-1.2c1.2,0,2.2,0.4,3,1.2c0.8,0.8,1.3,1.8,1.3,3V49c0,0.6,0.2,1.1,0.7,1.6c0.4,0.4,1,0.6,1.6,0.6
				c0.6,0,1.1-0.2,1.5-0.6c0.4-0.4,0.6-0.9,0.6-1.6v-9.9c0-2.3-0.8-4.4-2.5-6.1C183.9,31.3,181.9,30.5,179.5,30.5z"/>
			<path class="st5" d="M213.1,31.1c-0.4-0.4-0.9-0.6-1.5-0.6c-0.6,0-1.1,0.2-1.5,0.5c-0.4,0.3-0.7,0.7-0.8,1.2
				c-1.6-1.2-3.5-1.7-5.6-1.7c-2.8,0-5.1,1-7,3.1c-1.9,2.1-2.9,4.5-2.9,7.4c0,2.9,1,5.3,2.9,7.3c1.9,2.1,4.3,3.2,7,3.2
				c2,0,3.8-0.6,5.4-1.7c-0.3,1.3-0.9,2.3-1.9,3.2c-1,0.8-2.1,1.3-3.2,1.3c-1.1,0-2-0.2-2.7-0.6c-0.6-0.2-1.2-0.3-1.7-0.1
				c-0.6,0.2-1,0.6-1.3,1.1c-0.3,0.6-0.3,1.1-0.1,1.7c0.2,0.6,0.6,1,1.1,1.3c1.3,0.7,2.8,1,4.4,1c2.7,0,5.1-1,7-2.9
				c1.9-1.9,2.9-4.3,2.9-7v-16C213.8,32.1,213.5,31.6,213.1,31.1z M207.8,45.2c-1.1,1.1-2.4,1.7-3.9,1.7c-1.6,0-2.9-0.6-3.9-1.7
				s-1.6-2.6-1.6-4.2c0-1.6,0.5-3,1.6-4.2c1.1-1.2,2.4-1.8,3.9-1.8c1.5,0,2.8,0.6,3.9,1.8c1.1,1.2,1.6,2.6,1.6,4.3
				C209.3,42.7,208.8,44.1,207.8,45.2z"/>
			<path class="st5" d="M66.9,13.6h1.7v5.8c0,0.2,0.1,0.3,0.2,0.4c0.1,0.1,0.3,0.2,0.4,0.2c0.2,0,0.3-0.1,0.4-0.2
				c0.1-0.1,0.2-0.3,0.2-0.4v-5.8h1.7c0.2,0,0.3-0.1,0.4-0.2c0.1-0.1,0.2-0.3,0.2-0.4c0-0.2-0.1-0.3-0.2-0.4
				c-0.1-0.1-0.3-0.2-0.4-0.2h-4.7c-0.2,0-0.3,0.1-0.4,0.2c-0.1,0.1-0.2,0.3-0.2,0.4c0,0.2,0.1,0.3,0.2,0.4
				C66.6,13.6,66.8,13.6,66.9,13.6z"/>
			<path class="st5" d="M78.3,12.4c-0.2,0-0.3,0.1-0.4,0.2c-0.1,0.1-0.2,0.3-0.2,0.4v2.6h-2.8V13c0-0.2-0.1-0.3-0.2-0.4
				c-0.1-0.1-0.3-0.2-0.4-0.2s-0.3,0.1-0.4,0.2c-0.1,0.1-0.2,0.3-0.2,0.4v6.4c0,0.2,0.1,0.3,0.2,0.4c0.1,0.1,0.3,0.2,0.4,0.2
				s0.3-0.1,0.4-0.2c0.1-0.1,0.2-0.3,0.2-0.4v-2.6h2.8v2.6c0,0.2,0.1,0.3,0.2,0.4c0.1,0.1,0.3,0.2,0.4,0.2c0.2,0,0.3-0.1,0.4-0.2
				c0.1-0.1,0.2-0.3,0.2-0.4V13c0-0.2-0.1-0.3-0.2-0.4C78.7,12.5,78.5,12.4,78.3,12.4z"/>
			<path class="st5" d="M81.8,20.1L81.8,20.1L81.8,20.1h3.6c0.2,0,0.3-0.1,0.4-0.2c0.1-0.1,0.2-0.3,0.2-0.4c0-0.2-0.1-0.3-0.2-0.4
				c-0.1-0.1-0.3-0.2-0.4-0.2h-3v-2h2.5c0.2,0,0.3-0.1,0.4-0.2c0.1-0.1,0.2-0.3,0.2-0.4c0-0.2-0.1-0.3-0.2-0.4
				c-0.1-0.1-0.3-0.2-0.4-0.2h-2.5v-2h3c0.2,0,0.3-0.1,0.4-0.2c0.1-0.1,0.2-0.3,0.2-0.4c0-0.2-0.1-0.3-0.2-0.4
				c-0.1-0.1-0.3-0.2-0.4-0.2h-3.6c-0.2,0-0.3,0.1-0.4,0.2c-0.1,0.1-0.2,0.3-0.2,0.4v6.4c0,0.2,0.1,0.3,0.2,0.4
				C81.5,20,81.6,20.1,81.8,20.1z"/>
		</g>
	</g>
</g>
</svg>
